<?xml version="1.0" encoding="UTF-8" standalone="no"?>
<!DOCTYPE svg PUBLIC "-//W3C//DTD SVG 1.1//EN"
 "http://www.w3.org/Graphics/SVG/1.1/DTD/svg11.dtd">
<!-- Generated by graphviz version 10.0.1 (20240210.2158)
 -->
<!-- Title: G Pages: 1 -->
<svg width="2667pt" height="561pt"
 viewBox="0.00 0.00 2667.25 561.20" xmlns="http://www.w3.org/2000/svg" xmlns:xlink="http://www.w3.org/1999/xlink">
<g id="graph0" class="graph" transform="scale(1 1) rotate(0) translate(4 557.2)">
<title>G</title>
<polygon fill="white" stroke="none" points="-4,4 -4,-557.2 2663.25,-557.2 2663.25,4 -4,4"/>
<g id="clust1" class="cluster">
<title>cluster_module.instance</title>
<polygon fill="none" stroke="black" points="514.88,-378.2 514.88,-509.2 1275,-509.2 1275,-378.2 514.88,-378.2"/>
<text text-anchor="middle" x="894.94" y="-491.9" font-family="sans-serif" font-size="14.00">module.instance</text>
</g>
<!-- data.google_project.project -->
<g id="node1" class="node">
<title>data.google_project.project</title>
<polygon fill="none" stroke="black" points="1884,-235.2 1694.75,-235.2 1694.75,-199.2 1884,-199.2 1884,-235.2"/>
<text text-anchor="middle" x="1789.38" y="-212.52" font-family="sans-serif" font-size="14.00">data.google_project.project</text>
</g>
<!-- google_cloud_run_v2_service.hello -->
<g id="node2" class="node">
<title>google_cloud_run_v2_service.hello</title>
<polygon fill="none" stroke="black" points="2659.25,-169.2 2425,-169.2 2425,-133.2 2659.25,-133.2 2659.25,-169.2"/>
<text text-anchor="middle" x="2542.12" y="-146.52" font-family="sans-serif" font-size="14.00">google_cloud_run_v2_service.hello</text>
</g>
<!-- google_secret_manager_secret_version.app_secret_version -->
<g id="node18" class="node">
<title>google_secret_manager_secret_version.app_secret_version</title>
<polygon fill="none" stroke="black" points="2372.88,-331.2 1984.12,-331.2 1984.12,-295.2 2372.88,-295.2 2372.88,-331.2"/>
<text text-anchor="middle" x="2178.5" y="-308.52" font-family="sans-serif" font-size="14.00">google_secret_manager_secret_version.app_secret_version</text>
</g>
<!-- google_cloud_run_v2_service.hello&#45;&gt;google_secret_manager_secret_version.app_secret_version -->
<g id="edge1" class="edge">
<title>google_cloud_run_v2_service.hello&#45;&gt;google_secret_manager_secret_version.app_secret_version</title>
<path fill="none" stroke="black" d="M2527.03,-169.37C2502.57,-199.42 2449.1,-258.85 2389,-286.2 2385.39,-287.84 2381.7,-289.4 2377.96,-290.86"/>
<polygon fill="black" stroke="black" points="2376.89,-287.53 2368.7,-294.26 2379.3,-294.1 2376.89,-287.53"/>
</g>
<!-- google_secret_manager_secret_version.db_secret_version -->
<g id="node19" class="node">
<title>google_secret_manager_secret_version.db_secret_version</title>
<polygon fill="none" stroke="black" points="2369.12,-169.2 1987.88,-169.2 1987.88,-133.2 2369.12,-133.2 2369.12,-169.2"/>
<text text-anchor="middle" x="2178.5" y="-146.52" font-family="sans-serif" font-size="14.00">google_secret_manager_secret_version.db_secret_version</text>
</g>
<!-- google_cloud_run_v2_service.hello&#45;&gt;google_secret_manager_secret_version.db_secret_version -->
<g id="edge2" class="edge">
<title>google_cloud_run_v2_service.hello&#45;&gt;google_secret_manager_secret_version.db_secret_version</title>
<path fill="none" stroke="black" d="M2424.71,-151.2C2410.56,-151.2 2395.81,-151.2 2380.86,-151.2"/>
<polygon fill="black" stroke="black" points="2380.92,-147.7 2370.92,-151.2 2380.92,-154.7 2380.92,-147.7"/>
</g>
<!-- google_vpc_access_connector.connector -->
<g id="node25" class="node">
<title>google_vpc_access_connector.connector</title>
<polygon fill="none" stroke="black" points="2314.38,-50.2 2042.62,-50.2 2042.62,-14.2 2314.38,-14.2 2314.38,-50.2"/>
<text text-anchor="middle" x="2178.5" y="-27.52" font-family="sans-serif" font-size="14.00">google_vpc_access_connector.connector</text>
</g>
<!-- google_cloud_run_v2_service.hello&#45;&gt;google_vpc_access_connector.connector -->
<g id="edge3" class="edge">
<title>google_cloud_run_v2_service.hello&#45;&gt;google_vpc_access_connector.connector</title>
<path fill="none" stroke="black" d="M2512.9,-132.72C2483.24,-114.14 2434.65,-86.06 2389,-70.2 2368.93,-63.23 2347.31,-57.47 2325.85,-52.73"/>
<polygon fill="black" stroke="black" points="2326.64,-49.32 2316.13,-50.66 2325.18,-56.17 2326.64,-49.32"/>
</g>
<!-- google_compute_firewall.allow_ssh -->
<g id="node3" class="node">
<title>google_compute_firewall.allow_ssh</title>
<polygon fill="none" stroke="black" points="765,-208.2 529.25,-208.2 529.25,-172.2 765,-172.2 765,-208.2"/>
<text text-anchor="middle" x="647.12" y="-185.52" font-family="sans-serif" font-size="14.00">google_compute_firewall.allow_ssh</text>
</g>
<!-- google_compute_network.network -->
<g id="node5" class="node">
<title>google_compute_network.network</title>
<polygon fill="none" stroke="black" points="426.5,-181.2 193.75,-181.2 193.75,-145.2 426.5,-145.2 426.5,-181.2"/>
<text text-anchor="middle" x="310.12" y="-158.52" font-family="sans-serif" font-size="14.00">google_compute_network.network</text>
</g>
<!-- google_compute_firewall.allow_ssh&#45;&gt;google_compute_network.network -->
<g id="edge4" class="edge">
<title>google_compute_firewall.allow_ssh&#45;&gt;google_compute_network.network</title>
<path fill="none" stroke="black" d="M528.96,-180.75C499.6,-178.39 467.96,-175.84 438.14,-173.44"/>
<polygon fill="black" stroke="black" points="438.57,-169.96 428.32,-172.64 438.01,-176.94 438.57,-169.96"/>
</g>
<!-- google_compute_global_address.private_ip_address -->
<g id="node4" class="node">
<title>google_compute_global_address.private_ip_address</title>
<polygon fill="none" stroke="black" points="819,-100.2 475.25,-100.2 475.25,-64.2 819,-64.2 819,-100.2"/>
<text text-anchor="middle" x="647.12" y="-77.52" font-family="sans-serif" font-size="14.00">google_compute_global_address.private_ip_address</text>
</g>
<!-- google_compute_global_address.private_ip_address&#45;&gt;google_compute_network.network -->
<g id="edge5" class="edge">
<title>google_compute_global_address.private_ip_address&#45;&gt;google_compute_network.network</title>
<path fill="none" stroke="black" d="M515.08,-100.69C501.57,-103.26 488.09,-106.09 475.25,-109.2 440.04,-117.71 401.53,-130.21 370.66,-141.04"/>
<polygon fill="black" stroke="black" points="369.76,-137.64 361.51,-144.28 372.1,-144.24 369.76,-137.64"/>
</g>
<!-- random_string.suffix -->
<g id="node28" class="node">
<title>random_string.suffix</title>
<polygon fill="none" stroke="black" points="145,-393.2 0,-393.2 0,-357.2 145,-357.2 145,-393.2"/>
<text text-anchor="middle" x="72.5" y="-370.52" font-family="sans-serif" font-size="14.00">random_string.suffix</text>
</g>
<!-- google_compute_network.network&#45;&gt;random_string.suffix -->
<g id="edge6" class="edge">
<title>google_compute_network.network&#45;&gt;random_string.suffix</title>
<path fill="none" stroke="black" d="M288.63,-181.64C246.57,-219.48 150.44,-305.98 102.21,-349.37"/>
<polygon fill="black" stroke="black" points="100,-346.65 94.91,-355.94 104.68,-351.85 100,-346.65"/>
</g>
<!-- google_compute_resource_policy.snapshot_policy -->
<g id="node6" class="node">
<title>google_compute_resource_policy.snapshot_policy</title>
<polygon fill="none" stroke="black" points="811.12,-553.2 483.12,-553.2 483.12,-517.2 811.12,-517.2 811.12,-553.2"/>
<text text-anchor="middle" x="647.12" y="-530.52" font-family="sans-serif" font-size="14.00">google_compute_resource_policy.snapshot_policy</text>
</g>
<!-- google_compute_resource_policy.snapshot_policy&#45;&gt;random_string.suffix -->
<g id="edge7" class="edge">
<title>google_compute_resource_policy.snapshot_policy&#45;&gt;random_string.suffix</title>
<path fill="none" stroke="black" d="M491.71,-516.78C486.14,-515.65 480.64,-514.46 475.25,-513.2 347.85,-483.44 204.09,-428.65 127.82,-397.82"/>
<polygon fill="black" stroke="black" points="129.5,-394.72 118.92,-394.2 126.87,-401.21 129.5,-394.72"/>
</g>
<!-- google_compute_router.router -->
<g id="node7" class="node">
<title>google_compute_router.router</title>
<polygon fill="none" stroke="black" points="751.5,-154.2 542.75,-154.2 542.75,-118.2 751.5,-118.2 751.5,-154.2"/>
<text text-anchor="middle" x="647.12" y="-131.52" font-family="sans-serif" font-size="14.00">google_compute_router.router</text>
</g>
<!-- google_compute_router.router&#45;&gt;google_compute_network.network -->
<g id="edge8" class="edge">
<title>google_compute_router.router&#45;&gt;google_compute_network.network</title>
<path fill="none" stroke="black" d="M542.42,-144.56C509.39,-147.22 472.47,-150.19 437.99,-152.97"/>
<polygon fill="black" stroke="black" points="438.08,-149.45 428.4,-153.75 438.65,-156.43 438.08,-149.45"/>
</g>
<!-- google_compute_router_nat.nat -->
<g id="node8" class="node">
<title>google_compute_router_nat.nat</title>
<polygon fill="none" stroke="black" points="1171,-154.2 952.5,-154.2 952.5,-118.2 1171,-118.2 1171,-154.2"/>
<text text-anchor="middle" x="1061.75" y="-131.52" font-family="sans-serif" font-size="14.00">google_compute_router_nat.nat</text>
</g>
<!-- google_compute_router_nat.nat&#45;&gt;google_compute_router.router -->
<g id="edge9" class="edge">
<title>google_compute_router_nat.nat&#45;&gt;google_compute_router.router</title>
<path fill="none" stroke="black" d="M952.07,-136.2C893.86,-136.2 822.17,-136.2 763.04,-136.2"/>
<polygon fill="black" stroke="black" points="763.28,-132.7 753.28,-136.2 763.28,-139.7 763.28,-132.7"/>
</g>
<!-- google_compute_subnetwork.subnet -->
<g id="node9" class="node">
<title>google_compute_subnetwork.subnet</title>
<polygon fill="none" stroke="black" points="771,-262.2 523.25,-262.2 523.25,-226.2 771,-226.2 771,-262.2"/>
<text text-anchor="middle" x="647.12" y="-239.52" font-family="sans-serif" font-size="14.00">google_compute_subnetwork.subnet</text>
</g>
<!-- google_compute_subnetwork.subnet&#45;&gt;google_compute_network.network -->
<g id="edge10" class="edge">
<title>google_compute_subnetwork.subnet&#45;&gt;google_compute_network.network</title>
<path fill="none" stroke="black" d="M522.92,-227.17C506.8,-224.23 490.58,-220.9 475.25,-217.2 440.04,-208.68 401.53,-196.18 370.66,-185.36"/>
<polygon fill="black" stroke="black" points="372.1,-182.15 361.51,-182.11 369.76,-188.75 372.1,-182.15"/>
</g>
<!-- google_container_cluster.primary -->
<g id="node10" class="node">
<title>google_container_cluster.primary</title>
<polygon fill="none" stroke="black" points="1174.38,-262.2 949.12,-262.2 949.12,-226.2 1174.38,-226.2 1174.38,-262.2"/>
<text text-anchor="middle" x="1061.75" y="-239.52" font-family="sans-serif" font-size="14.00">google_container_cluster.primary</text>
</g>
<!-- google_container_cluster.primary&#45;&gt;google_compute_subnetwork.subnet -->
<g id="edge11" class="edge">
<title>google_container_cluster.primary&#45;&gt;google_compute_subnetwork.subnet</title>
<path fill="none" stroke="black" d="M948.82,-244.2C897.57,-244.2 836.42,-244.2 782.69,-244.2"/>
<polygon fill="black" stroke="black" points="782.85,-240.7 772.85,-244.2 782.85,-247.7 782.85,-240.7"/>
</g>
<!-- google_container_node_pool.spot -->
<g id="node11" class="node">
<title>google_container_node_pool.spot</title>
<polygon fill="none" stroke="black" points="1571.38,-262.2 1343.88,-262.2 1343.88,-226.2 1571.38,-226.2 1571.38,-262.2"/>
<text text-anchor="middle" x="1457.62" y="-239.52" font-family="sans-serif" font-size="14.00">google_container_node_pool.spot</text>
</g>
<!-- google_container_node_pool.spot&#45;&gt;google_container_cluster.primary -->
<g id="edge12" class="edge">
<title>google_container_node_pool.spot&#45;&gt;google_container_cluster.primary</title>
<path fill="none" stroke="black" d="M1343.49,-244.2C1294.26,-244.2 1236.43,-244.2 1186.1,-244.2"/>
<polygon fill="black" stroke="black" points="1186.32,-240.7 1176.32,-244.2 1186.32,-247.7 1186.32,-240.7"/>
</g>
<!-- google_project_iam_member.compute -->
<g id="node12" class="node">
<title>google_project_iam_member.compute</title>
<polygon fill="none" stroke="black" points="776.25,-370.2 518,-370.2 518,-334.2 776.25,-334.2 776.25,-370.2"/>
<text text-anchor="middle" x="647.12" y="-347.52" font-family="sans-serif" font-size="14.00">google_project_iam_member.compute</text>
</g>
<!-- google_service_account.readonly_user -->
<g id="node20" class="node">
<title>google_service_account.readonly_user</title>
<polygon fill="none" stroke="black" points="439.25,-370.2 181,-370.2 181,-334.2 439.25,-334.2 439.25,-370.2"/>
<text text-anchor="middle" x="310.12" y="-347.52" font-family="sans-serif" font-size="14.00">google_service_account.readonly_user</text>
</g>
<!-- google_project_iam_member.compute&#45;&gt;google_service_account.readonly_user -->
<g id="edge13" class="edge">
<title>google_project_iam_member.compute&#45;&gt;google_service_account.readonly_user</title>
<path fill="none" stroke="black" d="M517.56,-352.2C495.8,-352.2 473.11,-352.2 451.07,-352.2"/>
<polygon fill="black" stroke="black" points="451.13,-348.7 441.13,-352.2 451.13,-355.7 451.13,-348.7"/>
</g>
<!-- google_project_iam_member.viewer -->
<g id="node13" class="node">
<title>google_project_iam_member.viewer</title>
<polygon fill="none" stroke="black" points="769.12,-316.2 525.12,-316.2 525.12,-280.2 769.12,-280.2 769.12,-316.2"/>
<text text-anchor="middle" x="647.12" y="-293.52" font-family="sans-serif" font-size="14.00">google_project_iam_member.viewer</text>
</g>
<!-- google_project_iam_member.viewer&#45;&gt;google_service_account.readonly_user -->
<g id="edge14" class="edge">
<title>google_project_iam_member.viewer&#45;&gt;google_service_account.readonly_user</title>
<path fill="none" stroke="black" d="M528.45,-316.69C510.62,-319.52 492.45,-322.42 475.25,-325.2 461.87,-327.36 447.87,-329.63 433.94,-331.91"/>
<polygon fill="black" stroke="black" points="433.59,-328.42 424.29,-333.49 434.72,-335.33 433.59,-328.42"/>
</g>
<!-- google_secret_manager_secret.app_secret -->
<g id="node14" class="node">
<title>google_secret_manager_secret.app_secret</title>
<polygon fill="none" stroke="black" points="1932,-289.2 1646.75,-289.2 1646.75,-253.2 1932,-253.2 1932,-289.2"/>
<text text-anchor="middle" x="1789.38" y="-266.52" font-family="sans-serif" font-size="14.00">google_secret_manager_secret.app_secret</text>
</g>
<!-- google_secret_manager_secret.db_secret -->
<g id="node15" class="node">
<title>google_secret_manager_secret.db_secret</title>
<polygon fill="none" stroke="black" points="1928.25,-181.2 1650.5,-181.2 1650.5,-145.2 1928.25,-145.2 1928.25,-181.2"/>
<text text-anchor="middle" x="1789.38" y="-158.52" font-family="sans-serif" font-size="14.00">google_secret_manager_secret.db_secret</text>
</g>
<!-- google_secret_manager_secret_iam_member.app_secret&#45;access -->
<g id="node16" class="node">
<title>google_secret_manager_secret_iam_member.app_secret&#45;access</title>
<polygon fill="none" stroke="black" points="2389,-277.2 1968,-277.2 1968,-241.2 2389,-241.2 2389,-277.2"/>
<text text-anchor="middle" x="2178.5" y="-254.52" font-family="sans-serif" font-size="14.00">google_secret_manager_secret_iam_member.app_secret&#45;access</text>
</g>
<!-- google_secret_manager_secret_iam_member.app_secret&#45;access&#45;&gt;data.google_project.project -->
<g id="edge15" class="edge">
<title>google_secret_manager_secret_iam_member.app_secret&#45;access&#45;&gt;data.google_project.project</title>
<path fill="none" stroke="black" d="M2007.14,-240.71C1969.06,-236.58 1929.78,-232.32 1895.28,-228.58"/>
<polygon fill="black" stroke="black" points="1896.08,-225.15 1885.76,-227.55 1895.33,-232.1 1896.08,-225.15"/>
</g>
<!-- google_secret_manager_secret_iam_member.app_secret&#45;access&#45;&gt;google_secret_manager_secret.app_secret -->
<g id="edge16" class="edge">
<title>google_secret_manager_secret_iam_member.app_secret&#45;access&#45;&gt;google_secret_manager_secret.app_secret</title>
<path fill="none" stroke="black" d="M1967.51,-265.71C1959.57,-265.95 1951.66,-266.2 1943.85,-266.44"/>
<polygon fill="black" stroke="black" points="1943.87,-262.94 1933.99,-266.75 1944.09,-269.93 1943.87,-262.94"/>
</g>
<!-- google_secret_manager_secret_iam_member.db_secret&#45;access -->
<g id="node17" class="node">
<title>google_secret_manager_secret_iam_member.db_secret&#45;access</title>
<polygon fill="none" stroke="black" points="2385.25,-223.2 1971.75,-223.2 1971.75,-187.2 2385.25,-187.2 2385.25,-223.2"/>
<text text-anchor="middle" x="2178.5" y="-200.52" font-family="sans-serif" font-size="14.00">google_secret_manager_secret_iam_member.db_secret&#45;access</text>
</g>
<!-- google_secret_manager_secret_iam_member.db_secret&#45;access&#45;&gt;data.google_project.project -->
<g id="edge17" class="edge">
<title>google_secret_manager_secret_iam_member.db_secret&#45;access&#45;&gt;data.google_project.project</title>
<path fill="none" stroke="black" d="M1971.47,-211.58C1945.24,-212.4 1919.33,-213.2 1895.65,-213.93"/>
<polygon fill="black" stroke="black" points="1895.62,-210.43 1885.73,-214.24 1895.83,-217.43 1895.62,-210.43"/>
</g>
<!-- google_secret_manager_secret_iam_member.db_secret&#45;access&#45;&gt;google_secret_manager_secret.db_secret -->
<g id="edge18" class="edge">
<title>google_secret_manager_secret_iam_member.db_secret&#45;access&#45;&gt;google_secret_manager_secret.db_secret</title>
<path fill="none" stroke="black" d="M2007.14,-186.71C1984.77,-184.29 1961.98,-181.82 1939.99,-179.43"/>
<polygon fill="black" stroke="black" points="1940.39,-175.95 1930.07,-178.35 1939.64,-182.91 1940.39,-175.95"/>
</g>
<!-- google_secret_manager_secret_version.app_secret_version&#45;&gt;google_secret_manager_secret.app_secret -->
<g id="edge19" class="edge">
<title>google_secret_manager_secret_version.app_secret_version&#45;&gt;google_secret_manager_secret.app_secret</title>
<path fill="none" stroke="black" d="M2007.14,-294.71C1985.99,-292.42 1964.46,-290.09 1943.59,-287.82"/>
<polygon fill="black" stroke="black" points="1944.23,-284.37 1933.92,-286.77 1943.48,-291.33 1944.23,-284.37"/>
</g>
<!-- random_password.app_secret -->
<g id="node26" class="node">
<title>random_password.app_secret</title>
<polygon fill="none" stroke="black" points="1891.88,-343.2 1686.88,-343.2 1686.88,-307.2 1891.88,-307.2 1891.88,-343.2"/>
<text text-anchor="middle" x="1789.38" y="-320.52" font-family="sans-serif" font-size="14.00">random_password.app_secret</text>
</g>
<!-- google_secret_manager_secret_version.app_secret_version&#45;&gt;random_password.app_secret -->
<g id="edge20" class="edge">
<title>google_secret_manager_secret_version.app_secret_version&#45;&gt;random_password.app_secret</title>
<path fill="none" stroke="black" d="M1983.65,-319.21C1956.22,-320.06 1928.8,-320.91 1903.59,-321.69"/>
<polygon fill="black" stroke="black" points="1903.57,-318.19 1893.68,-322 1903.79,-325.18 1903.57,-318.19"/>
</g>
<!-- google_secret_manager_secret_version.db_secret_version&#45;&gt;google_secret_manager_secret.db_secret -->
<g id="edge21" class="edge">
<title>google_secret_manager_secret_version.db_secret_version&#45;&gt;google_secret_manager_secret.db_secret</title>
<path fill="none" stroke="black" d="M1987.62,-157.08C1971.61,-157.58 1955.55,-158.08 1939.91,-158.56"/>
<polygon fill="black" stroke="black" points="1939.99,-155.06 1930.11,-158.87 1940.21,-162.05 1939.99,-155.06"/>
</g>
<!-- random_password.db_secret -->
<g id="node27" class="node">
<title>random_password.db_secret</title>
<polygon fill="none" stroke="black" points="1888.12,-127.2 1690.62,-127.2 1690.62,-91.2 1888.12,-91.2 1888.12,-127.2"/>
<text text-anchor="middle" x="1789.38" y="-104.52" font-family="sans-serif" font-size="14.00">random_password.db_secret</text>
</g>
<!-- google_secret_manager_secret_version.db_secret_version&#45;&gt;random_password.db_secret -->
<g id="edge22" class="edge">
<title>google_secret_manager_secret_version.db_secret_version&#45;&gt;random_password.db_secret</title>
<path fill="none" stroke="black" d="M2007.14,-132.71C1970.69,-128.76 1933.12,-124.69 1899.72,-121.06"/>
<polygon fill="black" stroke="black" points="1900.38,-117.61 1890.06,-120.01 1899.62,-124.57 1900.38,-117.61"/>
</g>
<!-- google_service_account.readonly_user&#45;&gt;random_string.suffix -->
<g id="edge23" class="edge">
<title>google_service_account.readonly_user&#45;&gt;random_string.suffix</title>
<path fill="none" stroke="black" d="M180.63,-364.74C172.52,-365.53 164.49,-366.32 156.67,-367.08"/>
<polygon fill="black" stroke="black" points="156.52,-363.58 146.91,-368.03 157.2,-370.54 156.52,-363.58"/>
</g>
<!-- google_service_networking_connection.private_vpc_connection -->
<g id="node21" class="node">
<title>google_service_networking_connection.private_vpc_connection</title>
<polygon fill="none" stroke="black" points="1268.5,-100.2 855,-100.2 855,-64.2 1268.5,-64.2 1268.5,-100.2"/>
<text text-anchor="middle" x="1061.75" y="-77.52" font-family="sans-serif" font-size="14.00">google_service_networking_connection.private_vpc_connection</text>
</g>
<!-- google_service_networking_connection.private_vpc_connection&#45;&gt;google_compute_global_address.private_ip_address -->
<g id="edge24" class="edge">
<title>google_service_networking_connection.private_vpc_connection&#45;&gt;google_compute_global_address.private_ip_address</title>
<path fill="none" stroke="black" d="M854.74,-82.2C846.81,-82.2 838.89,-82.2 831,-82.2"/>
<polygon fill="black" stroke="black" points="831.01,-78.7 821.01,-82.2 831.01,-85.7 831.01,-78.7"/>
</g>
<!-- google_sql_database.db -->
<g id="node22" class="node">
<title>google_sql_database.db</title>
<polygon fill="none" stroke="black" points="1873.5,-73.2 1705.25,-73.2 1705.25,-37.2 1873.5,-37.2 1873.5,-73.2"/>
<text text-anchor="middle" x="1789.38" y="-50.52" font-family="sans-serif" font-size="14.00">google_sql_database.db</text>
</g>
<!-- google_sql_database_instance.mysql_instance -->
<g id="node23" class="node">
<title>google_sql_database_instance.mysql_instance</title>
<polygon fill="none" stroke="black" points="1610.75,-114.2 1304.5,-114.2 1304.5,-78.2 1610.75,-78.2 1610.75,-114.2"/>
<text text-anchor="middle" x="1457.62" y="-91.52" font-family="sans-serif" font-size="14.00">google_sql_database_instance.mysql_instance</text>
</g>
<!-- google_sql_database.db&#45;&gt;google_sql_database_instance.mysql_instance -->
<g id="edge25" class="edge">
<title>google_sql_database.db&#45;&gt;google_sql_database_instance.mysql_instance</title>
<path fill="none" stroke="black" d="M1705.17,-65.54C1678.66,-68.84 1648.38,-72.6 1618.33,-76.34"/>
<polygon fill="black" stroke="black" points="1618.28,-72.82 1608.78,-77.53 1619.14,-79.77 1618.28,-72.82"/>
</g>
<!-- google_sql_database_instance.mysql_instance&#45;&gt;google_service_networking_connection.private_vpc_connection -->
<g id="edge26" class="edge">
<title>google_sql_database_instance.mysql_instance&#45;&gt;google_service_networking_connection.private_vpc_connection</title>
<path fill="none" stroke="black" d="M1304.06,-90.78C1296.19,-90.5 1288.23,-90.21 1280.21,-89.93"/>
<polygon fill="black" stroke="black" points="1280.49,-86.44 1270.37,-89.58 1280.24,-93.43 1280.49,-86.44"/>
</g>
<!-- google_sql_user.user -->
<g id="node24" class="node">
<title>google_sql_user.user</title>
<polygon fill="none" stroke="black" points="2252.88,-115.2 2104.12,-115.2 2104.12,-79.2 2252.88,-79.2 2252.88,-115.2"/>
<text text-anchor="middle" x="2178.5" y="-92.52" font-family="sans-serif" font-size="14.00">google_sql_user.user</text>
</g>
<!-- google_sql_user.user&#45;&gt;random_password.db_secret -->
<g id="edge27" class="edge">
<title>google_sql_user.user&#45;&gt;random_password.db_secret</title>
<path fill="none" stroke="black" d="M2103.77,-99.48C2046.02,-101.27 1964.8,-103.79 1899.51,-105.81"/>
<polygon fill="black" stroke="black" points="1899.75,-102.31 1889.86,-106.11 1899.96,-109.3 1899.75,-102.31"/>
</g>
<!-- google_vpc_access_connector.connector&#45;&gt;google_compute_network.network -->
<g id="edge28" class="edge">
<title>google_vpc_access_connector.connector&#45;&gt;google_compute_network.network</title>
<path fill="none" stroke="black" d="M2042.4,-25.3C1897.95,-18.52 1662.16,-9.2 1458.62,-9.2 1458.62,-9.2 1458.62,-9.2 1060.75,-9.2 799.73,-9.2 722.17,29.44 475.25,-55.2 422.98,-73.12 371.13,-111.61 340.11,-137.46"/>
<polygon fill="black" stroke="black" points="338.07,-134.6 332.71,-143.73 342.6,-139.94 338.07,-134.6"/>
</g>
<!-- random_password.app_secret&#45;&gt;google_sql_database_instance.mysql_instance -->
<g id="edge29" class="edge">
<title>random_password.app_secret&#45;&gt;google_sql_database_instance.mysql_instance</title>
<path fill="none" stroke="black" d="M1686.41,-318.14C1672.08,-313.75 1658.32,-307.37 1646.75,-298.2 1615.88,-273.72 1634.86,-248.36 1610.75,-217.2 1579.83,-177.24 1533.04,-142.63 1499.53,-120.78"/>
<polygon fill="black" stroke="black" points="1501.6,-117.96 1491.29,-115.51 1497.82,-123.85 1501.6,-117.96"/>
</g>
<!-- random_password.db_secret&#45;&gt;google_sql_database_instance.mysql_instance -->
<g id="edge30" class="edge">
<title>random_password.db_secret&#45;&gt;google_sql_database_instance.mysql_instance</title>
<path fill="none" stroke="black" d="M1690.33,-105.33C1668.88,-104.49 1645.61,-103.57 1622.36,-102.65"/>
<polygon fill="black" stroke="black" points="1622.61,-99.16 1612.48,-102.26 1622.33,-106.15 1622.61,-99.16"/>
</g>
<!-- module.instance.google_compute_disk.additional_disk -->
<g id="node29" class="node">
<title>module.instance.google_compute_disk.additional_disk</title>
<polygon fill="none" stroke="black" points="771.38,-424.2 522.88,-424.2 522.88,-388.2 771.38,-388.2 771.38,-424.2"/>
<text text-anchor="middle" x="647.12" y="-401.52" font-family="sans-serif" font-size="14.00">google_compute_disk.additional_disk</text>
</g>
<!-- module.instance.google_compute_disk.additional_disk&#45;&gt;random_string.suffix -->
<g id="edge31" class="edge">
<title>module.instance.google_compute_disk.additional_disk&#45;&gt;random_string.suffix</title>
<path fill="none" stroke="black" d="M522.58,-399.51C412,-393.52 252.92,-384.91 156.77,-379.71"/>
<polygon fill="black" stroke="black" points="157.05,-376.22 146.88,-379.17 156.67,-383.21 157.05,-376.22"/>
</g>
<!-- module.instance.google_compute_disk_resource_policy_attachment.attachment -->
<g id="node30" class="node">
<title>module.instance.google_compute_disk_resource_policy_attachment.attachment</title>
<polygon fill="none" stroke="black" points="1267,-476.2 856.5,-476.2 856.5,-440.2 1267,-440.2 1267,-476.2"/>
<text text-anchor="middle" x="1061.75" y="-453.52" font-family="sans-serif" font-size="14.00">google_compute_disk_resource_policy_attachment.attachment</text>
</g>
<!-- module.instance.google_compute_disk_resource_policy_attachment.attachment&#45;&gt;google_compute_resource_policy.snapshot_policy -->
<g id="edge32" class="edge">
<title>module.instance.google_compute_disk_resource_policy_attachment.attachment&#45;&gt;google_compute_resource_policy.snapshot_policy</title>
<path fill="none" stroke="black" d="M987.86,-476.7C940.07,-488.35 876.11,-503.05 819,-513.2 815.76,-513.77 812.47,-514.34 809.17,-514.9"/>
<polygon fill="black" stroke="black" points="808.61,-511.44 799.31,-516.52 809.75,-518.35 808.61,-511.44"/>
</g>
<!-- module.instance.google_compute_disk_resource_policy_attachment.attachment&#45;&gt;module.instance.google_compute_disk.additional_disk -->
<g id="edge33" class="edge">
<title>module.instance.google_compute_disk_resource_policy_attachment.attachment&#45;&gt;module.instance.google_compute_disk.additional_disk</title>
<path fill="none" stroke="black" d="M914.11,-439.72C871.46,-434.34 825.09,-428.5 783.19,-423.22"/>
<polygon fill="black" stroke="black" points="783.64,-419.75 773.28,-421.97 782.77,-426.69 783.64,-419.75"/>
</g>
<!-- module.instance.google_compute_instance.instance -->
<g id="node31" class="node">
<title>module.instance.google_compute_instance.instance</title>
<polygon fill="none" stroke="black" points="1179.62,-422.2 943.88,-422.2 943.88,-386.2 1179.62,-386.2 1179.62,-422.2"/>
<text text-anchor="middle" x="1061.75" y="-399.52" font-family="sans-serif" font-size="14.00">google_compute_instance.instance</text>
</g>
<!-- module.instance.google_compute_instance.instance&#45;&gt;google_compute_subnetwork.subnet -->
<g id="edge34" class="edge">
<title>module.instance.google_compute_instance.instance&#45;&gt;google_compute_subnetwork.subnet</title>
<path fill="none" stroke="black" d="M1034.63,-385.81C991.76,-356.58 902.84,-299.9 819,-271.2 807.24,-267.17 794.82,-263.74 782.26,-260.82"/>
<polygon fill="black" stroke="black" points="783.19,-257.44 772.67,-258.71 781.69,-264.28 783.19,-257.44"/>
</g>
<!-- module.instance.google_compute_instance.instance&#45;&gt;module.instance.google_compute_disk.additional_disk -->
<g id="edge35" class="edge">
<title>module.instance.google_compute_instance.instance&#45;&gt;module.instance.google_compute_disk.additional_disk</title>
<path fill="none" stroke="black" d="M943.61,-404.77C893.56,-405.01 834.83,-405.29 782.97,-405.54"/>
<polygon fill="black" stroke="black" points="783.17,-402.04 773.19,-405.59 783.21,-409.04 783.17,-402.04"/>
</g>
</g>
</svg>
